<svg width="24" height="22" viewBox="0 0 24 22" fill="none" xmlns="http://www.w3.org/2000/svg">
<path d="M22.641 11.5128H22C21.8795 7.56667 19.6231 4.26667 16.259 2.79487H20.4615V3.4359C20.4615 3.5379 20.5021 3.63573 20.5742 3.70786C20.6463 3.77999 20.7442 3.82051 20.8462 3.82051C20.9482 3.82051 21.046 3.77999 21.1181 3.70786C21.1903 3.63573 21.2308 3.5379 21.2308 3.4359V1.38462C21.2308 1.28261 21.1903 1.18478 21.1181 1.11265C21.046 1.04052 20.9482 1 20.8462 1C20.7442 1 20.6463 1.04052 20.5742 1.11265C20.5021 1.18478 20.4615 1.28261 20.4615 1.38462V2.02564H13.5385V1.38462C13.5385 1.28261 13.4979 1.18478 13.4258 1.11265C13.3537 1.04052 13.2559 1 13.1539 1H11.1026C11.0006 1 10.9027 1.04052 10.8306 1.11265C10.7585 1.18478 10.718 1.28261 10.718 1.38462V2.02564H3.79488V1.38462C3.79488 1.28261 3.75436 1.18478 3.68223 1.11265C3.6101 1.04052 3.51227 1 3.41026 1C3.30826 1 3.21043 1.04052 3.1383 1.11265C3.06617 1.18478 3.02565 1.28261 3.02565 1.38462V3.4359C3.02565 3.5379 3.06617 3.63573 3.1383 3.70786C3.21043 3.77999 3.30826 3.82051 3.41026 3.82051C3.51227 3.82051 3.6101 3.77999 3.68223 3.70786C3.75436 3.63573 3.79488 3.5379 3.79488 3.4359V2.79487H7.98462C6.22208 3.54624 4.71706 4.79553 3.65403 6.38961C2.59101 7.98369 2.01618 9.85329 2.00001 11.7692H1.35898C1.25697 11.7692 1.15915 11.8098 1.08702 11.8819C1.01489 11.954 0.974365 12.0518 0.974365 12.1538V14.2051C0.974365 14.3071 1.01489 14.405 1.08702 14.4771C1.15915 14.5492 1.25697 14.5897 1.35898 14.5897H3.41026C3.51227 14.5897 3.6101 14.5492 3.68223 14.4771C3.75436 14.405 3.79488 14.3071 3.79488 14.2051V12.1538C3.79488 12.0518 3.75436 11.954 3.68223 11.8819C3.6101 11.8098 3.51227 11.7692 3.41026 11.7692H2.76924C2.79491 9.57166 3.61323 7.45726 5.07367 5.81498C6.5341 4.1727 8.53843 3.11298 10.718 2.83077V3.4359C10.718 3.5379 10.7585 3.63573 10.8306 3.70786C10.9027 3.77999 11.0006 3.82051 11.1026 3.82051H11.7641L7.7718 13.9513C7.73807 14.0396 7.73807 14.1373 7.7718 14.2256L9.20257 18.1205L9.17949 20.6128C9.17916 20.6635 9.18885 20.7138 9.20803 20.7608C9.22721 20.8078 9.25549 20.8505 9.29123 20.8864C9.32698 20.9224 9.3695 20.951 9.41633 20.9705C9.46316 20.99 9.51338 21 9.56411 21H14.4359C14.5379 21 14.6357 20.9595 14.7079 20.8874C14.78 20.8152 14.8205 20.7174 14.8205 20.6154V18.1333L16.5667 14.2487C16.5868 14.2013 16.5971 14.1503 16.5971 14.0987C16.5971 14.0472 16.5868 13.9962 16.5667 13.9487L12.4923 3.82051H13.1539C13.2559 3.82051 13.3537 3.77999 13.4258 3.70786C13.4979 3.63573 13.5385 3.5379 13.5385 3.4359V2.83077C17.8974 3.42821 21.0744 7.01026 21.2308 11.5128H20.5898C20.4877 11.5128 20.3899 11.5533 20.3178 11.6255C20.2457 11.6976 20.2051 11.7954 20.2051 11.8974V13.9487C20.2051 14.0507 20.2457 14.1486 20.3178 14.2207C20.3899 14.2928 20.4877 14.3333 20.5898 14.3333H22.641C22.743 14.3333 22.8409 14.2928 22.913 14.2207C22.9851 14.1486 23.0256 14.0507 23.0256 13.9487V11.8974C23.0256 11.7954 22.9851 11.6976 22.913 11.6255C22.8409 11.5533 22.743 11.5128 22.641 11.5128ZM3.02565 13.8205H1.7436V12.5385H3.02565V13.8205ZM9.94872 20.2308L9.96411 18.4359H14.0513V20.2308H9.94872ZM14.1872 17.6667H9.85385L8.54103 14.0974L11.7436 5.9718V12.9231C11.7436 13.0251 11.7841 13.1229 11.8562 13.195C11.9284 13.2672 12.0262 13.3077 12.1282 13.3077C12.2302 13.3077 12.328 13.2672 12.4002 13.195C12.4723 13.1229 12.5128 13.0251 12.5128 12.9231V5.93333L15.7974 14.0769L14.1872 17.6667ZM12.7692 3.05128H11.4872V1.76923H12.7692V3.05128ZM22.2564 13.5641H20.9744V12.2821H22.2564V13.5641Z" fill="#6D758F" stroke="#6D758F" stroke-width="0.6"/>
</svg>
