<svg width="30" height="27" viewBox="0 0 30 27" fill="none" xmlns="http://www.w3.org/2000/svg">
<path d="M15.2564 0.00223368C6.97355 -0.139276 0.143745 6.46072 0.00223515 14.7436C-0.0781422 19.44 2.01507 23.6609 5.3479 26.4679C5.56582 26.2777 5.79959 26.1034 6.0594 25.9619L10.5351 23.5205C11.122 23.2002 11.4877 22.5849 11.4877 21.9158V20.0819C11.4877 20.0819 10.1739 18.5105 9.67299 16.3273C9.25752 16.0585 8.97903 15.5937 8.97903 15.0645V13.0573C8.97903 12.6158 9.17544 12.2213 9.48054 11.9451V9.04355C9.48054 9.04355 8.8845 4.52827 14.9994 4.52827C21.1143 4.52827 20.5183 9.04355 20.5183 9.04355V11.9451C20.8239 12.2213 21.0198 12.6158 21.0198 13.0573V15.0645C21.0198 15.7392 20.567 16.3069 19.9522 16.4966C19.6098 17.5613 19.1156 18.5762 18.4624 19.4988C18.2977 19.7315 18.1437 19.9285 18.009 20.0819V21.9622C18.009 22.6545 18.4002 23.2879 19.0194 23.597L23.812 25.993C24.0996 26.1368 24.3594 26.3185 24.5988 26.5205C27.8309 23.8251 29.919 19.7949 29.9966 15.2564C30.1392 6.97355 23.5398 0.143743 15.2564 0.00223368Z" fill="#D2D7E6"/>
</svg>
