<svg width="16" height="16" viewBox="0 0 16 16" fill="none" xmlns="http://www.w3.org/2000/svg">
<rect width="16" height="16" rx="8" fill="white"/>
<path d="M12.4633 10.4595C12.3829 10.2987 12.2494 10.1708 12.0854 10.0973C11.9213 10.0239 11.7369 10.0096 11.5635 10.0567L9.79231 10.5404C9.67953 10.571 9.56433 10.592 9.44798 10.6031C9.65663 10.3962 9.77758 10.1168 9.78572 9.82309C9.7866 9.76284 9.77548 9.70302 9.75303 9.64711C9.73058 9.5912 9.69723 9.54031 9.65494 9.4974C9.61264 9.45449 9.56223 9.42041 9.50665 9.39716C9.45107 9.3739 9.39142 9.36193 9.33116 9.36194L6.78563 9.36762C6.51193 9.36825 6.2402 9.41385 5.98129 9.50262L4.74467 9.92605L4.02283 10.2031V12.2486L4.7633 12.4329L6.53813 12.8277C6.7162 12.8672 6.89803 12.8871 7.08042 12.8873H8.59932C8.96462 12.8867 9.32542 12.8066 9.65663 12.6525L12.0967 11.5129C12.1908 11.4689 12.2752 11.4065 12.3448 11.3294C12.4144 11.2523 12.4679 11.162 12.502 11.0638C12.5362 10.9657 12.5503 10.8617 12.5436 10.7581C12.5369 10.6544 12.5095 10.5531 12.4631 10.4602L12.4633 10.4595Z" fill="url(#paint0_linear_2_648)"/>
<path d="M4.58259 9.36084H3.91803C3.66221 9.36084 3.45483 9.56822 3.45483 9.82404V12.5366C3.45483 12.7924 3.66221 12.9998 3.91803 12.9998H4.58259C4.83841 12.9998 5.04579 12.7924 5.04579 12.5366V9.82404C5.04579 9.56822 4.83841 9.36084 4.58259 9.36084Z" fill="#2F4858"/>
<path d="M9.7936 5.39686C9.77457 5.35951 9.74558 5.32816 9.70984 5.30626C9.67411 5.28436 9.63301 5.27277 9.59109 5.27277H8.67629L8.80539 3.2418C8.80854 3.1921 8.79529 3.14273 8.76765 3.1013C8.74002 3.05987 8.69955 3.02866 8.65245 3.01247C8.60535 2.99628 8.55424 2.996 8.50697 3.01169C8.45971 3.02738 8.4189 3.05816 8.39083 3.09929L6.22145 6.2812C6.19819 6.31535 6.18467 6.3552 6.18236 6.39646C6.18005 6.43772 6.18903 6.47882 6.20834 6.51536C6.22765 6.55189 6.25655 6.58247 6.29194 6.6038C6.32733 6.62514 6.36786 6.63642 6.40918 6.63644H7.3083L7.05147 8.65332C7.0452 8.70331 7.05572 8.75397 7.08137 8.79733C7.10702 8.8407 7.14635 8.87431 7.19318 8.89288C7.24002 8.91146 7.29169 8.91395 7.34009 8.89996C7.3885 8.88597 7.43088 8.85629 7.46058 8.8156L9.77473 5.63369C9.79942 5.59979 9.81424 5.55973 9.81757 5.51793C9.8209 5.47614 9.81261 5.43423 9.7936 5.39686Z" fill="#2F4858"/>
<defs>
<linearGradient id="paint0_linear_2_648" x1="8.28454" y1="9.4774" x2="8.28454" y2="12.8379" gradientUnits="userSpaceOnUse">
<stop stop-color="#FFE55C"/>
<stop offset="1" stop-color="#F9DD4A"/>
</linearGradient>
</defs>
</svg>
