<svg width="27" height="27" viewBox="0 0 27 27" fill="none" xmlns="http://www.w3.org/2000/svg">
<path d="M5.0625 23.625C4.59375 23.625 4.1955 23.4611 3.86775 23.1334C3.54 22.8056 3.37575 22.407 3.375 21.9375V19.8L7.875 15.8063V23.625H5.0625ZM9 23.625V19.125H18V23.625H9ZM19.125 23.625V14.4L14.3156 10.125L17.7188 7.11563L23.0625 11.8688C23.25 12.0375 23.3906 12.2299 23.4844 12.4459C23.5781 12.6619 23.625 12.8914 23.625 13.1344V21.9375C23.625 22.4063 23.4611 22.8049 23.1334 23.1334C22.8056 23.4619 22.407 23.6258 21.9375 23.625H19.125ZM3.375 18.2813V13.1344C3.375 12.8906 3.42187 12.6563 3.51562 12.4313C3.60938 12.2063 3.75 12.0188 3.9375 11.8688L12.375 4.3875C12.525 4.2375 12.6986 4.12988 12.8959 4.06463C13.0931 3.99938 13.2945 3.96638 13.5 3.96563C13.7055 3.96488 13.9073 3.99788 14.1053 4.06463C14.3033 4.13138 14.4765 4.239 14.625 4.3875L16.875 6.38438L3.375 18.2813Z" fill="black"/>
</svg>
