<svg width="30" height="30" viewBox="0 0 30 30" fill="none" xmlns="http://www.w3.org/2000/svg">
<path d="M8.74153 9.48305H18.6285C18.8252 9.48305 19.0138 9.40493 19.1529 9.26586C19.2919 9.1268 19.3701 8.93819 19.3701 8.74153C19.3701 8.54486 19.2919 8.35625 19.1529 8.21719C19.0138 8.07813 18.8252 8 18.6285 8H8.74153C8.54486 8 8.35625 8.07813 8.21719 8.21719C8.07812 8.35625 8 8.54486 8 8.74153C8 8.93819 8.07812 9.1268 8.21719 9.26586C8.35625 9.40493 8.54486 9.48305 8.74153 9.48305Z" fill="#2F4858"/>
<path d="M29.2571 15.0001C29.2571 14.8034 29.1789 14.6148 29.0399 14.4757C28.9008 14.3367 28.7122 14.2585 28.5155 14.2585H8.74153C8.54486 14.2585 8.35625 14.3367 8.21719 14.4757C8.07812 14.6148 8 14.8034 8 15.0001C8 15.1967 8.07812 15.3853 8.21719 15.5244C8.35625 15.6635 8.54486 15.7416 8.74153 15.7416H28.5155C28.7122 15.7416 28.9008 15.6635 29.0399 15.5244C29.1789 15.3853 29.2571 15.1967 29.2571 15.0001Z" fill="#2F4858"/>
<path d="M28.5156 20.5171H18.6285C18.4319 20.5171 18.2433 20.5952 18.1042 20.7343C17.9651 20.8733 17.887 21.062 17.887 21.2586C17.887 21.4553 17.9651 21.6439 18.1042 21.783C18.2433 21.922 18.4319 22.0001 18.6285 22.0001H28.5156C28.7122 22.0001 28.9008 21.922 29.0399 21.783C29.179 21.6439 29.2571 21.4553 29.2571 21.2586C29.2571 21.062 29.179 20.8733 29.0399 20.7343C28.9008 20.5952 28.7122 20.5171 28.5156 20.5171Z" fill="#2F4858"/>
</svg>
