<svg width="56" height="56" viewBox="0 0 56 56" fill="none" xmlns="http://www.w3.org/2000/svg">
<path d="M24.5997 55.79C19.6052 55.1425 14.4637 53.0005 10.7187 50.0028C2.28725 43.2758 -1.54 32.648 0.647496 22.0938C1.5855 17.5368 4.0285 12.7418 7.15575 9.28726C9.46096 6.69628 12.2387 4.56825 15.3405 3.01701C19.46 0.929257 23.3975 -0.00874329 28.0455 -0.00874329C31.381 -0.00874329 34.062 0.428757 37.1332 1.47701C41.1682 2.86075 44.8339 5.14754 47.8509 8.16301C50.8678 11.1785 53.1565 14.843 54.5422 18.8773C56.1837 23.6898 56.483 28.812 55.4347 33.8888C54.5965 37.8998 52.4352 42.4113 49.7752 45.6733C48.6815 47.0225 46.165 49.4288 44.8437 50.4035C40.8915 53.3399 36.2425 55.1963 31.3547 55.79C29.9145 55.972 25.9927 55.9633 24.5997 55.79ZM32.2297 53.4485C35.6078 52.8827 38.8413 51.657 41.7455 49.8412C44.6497 48.0255 47.1677 45.6554 49.1557 42.8663C53.886 36.2215 55.153 27.307 52.4825 19.5335C51.8542 17.71 50.295 14.6668 49.1557 13.062C47.8887 11.2665 44.7527 8.12176 42.9485 6.85476C41.1985 5.61576 38.2182 4.11076 36.1847 3.44576C32.5142 2.22587 28.6163 1.84651 24.7794 2.3357C20.9425 2.8249 17.2646 4.17015 14.0175 6.27201C10.9626 8.27929 8.35103 10.8908 6.34375 13.9458C4.2423 17.191 2.89725 20.8672 2.40804 24.7024C1.91884 28.5375 2.298 32.4336 3.5175 36.1025C4.19125 38.1343 5.69625 41.125 6.9265 42.875C8.20225 44.6705 11.3382 47.8153 13.1337 49.0823C14.7472 50.2128 17.7817 51.7703 19.6052 52.409C23.664 53.7879 28.0001 54.145 32.2297 53.4485ZM22.5312 44.0598C21.2225 43.8638 19.967 43.4048 18.8405 42.7105C17.829 42.063 10.1902 34.58 9.8175 33.8783C9.38875 33.0768 10.136 31.6173 11.2035 31.171L11.704 30.961L10.164 29.393C9.317 28.5268 8.51375 27.6063 8.386 27.3508C8.085 26.768 8.07625 25.5185 8.358 24.962C8.477 24.7345 8.75875 24.388 8.9775 24.1955C9.352 23.8858 9.387 23.7755 9.352 22.9915C9.3065 22.2985 9.3695 22.0255 9.6705 21.5058C10.108 20.7585 11.011 20.2563 11.8947 20.2475C12.3865 20.2475 12.5142 20.1845 12.7242 19.8188C13.272 18.8615 14.8382 18.515 16.0335 19.0995L16.681 19.4093L16.9995 19.0995C17.437 18.6988 18.312 18.3435 18.886 18.3435C20.034 18.3435 21.6562 19.6648 21.6562 20.594C21.6562 21.7053 20.6447 21.8978 19.642 20.9773C18.977 20.3578 18.6392 20.293 18.3662 20.7305C18.2297 20.9405 18.557 21.3325 20.517 23.31C22.477 25.2788 22.8322 25.6988 22.8322 26.0715C22.8168 26.3572 22.6951 26.6269 22.4912 26.8276C22.2872 27.0283 22.0157 27.1456 21.7297 27.1565C21.3745 27.1565 20.7917 26.6455 18.102 23.9663C15.358 21.231 14.8575 20.7935 14.6387 20.9318C14.0455 21.3063 14.2467 21.5793 17.4545 24.7958C19.1957 26.5458 20.6272 28.0945 20.6272 28.2415C20.6272 28.5425 20.3542 29.099 20.1267 29.2443C19.9401 29.326 19.7371 29.3637 19.5335 29.3545C19.159 29.3633 18.585 28.8435 15.533 25.8003C12.4705 22.7553 11.9227 22.2635 11.704 22.4C11.102 22.7833 11.3032 23.0475 14.7945 26.5563C16.7002 28.462 18.2945 30.1665 18.34 30.3485C18.4397 30.6775 18.221 31.2515 17.9305 31.451C17.7377 31.533 17.529 31.5707 17.3197 31.5613C16.9452 31.5613 16.4727 31.1518 13.9475 28.6265C11.5132 26.1923 10.948 25.6918 10.6382 25.7198C9.76325 25.8195 10.073 26.2115 14.5932 30.7423C18.5132 34.671 19.0137 35.2275 19.0137 35.637C19.0183 35.7875 18.9848 35.9366 18.9163 36.0706C18.8477 36.2047 18.7464 36.3192 18.6217 36.4035C17.92 36.96 17.647 36.8323 15.8777 35.119C14.9747 34.2528 14.0455 33.4145 13.7987 33.2588C13.3525 32.9858 12.222 32.8668 12.012 33.0855C11.9385 33.1485 13.6062 34.909 15.7132 36.995C19.222 40.467 19.6227 40.824 20.6535 41.3158C21.6029 41.789 22.6487 42.0368 23.7096 42.0398C24.7704 42.0428 25.8176 41.801 26.7697 41.3333C29.7132 39.9298 31.346 36.5208 30.5427 33.4303C30.142 31.8903 29.6397 31.1518 27.6167 29.064C25.284 26.6753 24.745 26.019 24.171 24.871C23.5322 23.5865 23.2592 22.337 23.2592 20.7778C23.2592 19.0908 23.4325 18.326 24.1797 16.7493C24.8902 15.246 26.376 13.6693 27.8442 12.8573C30.7247 11.2525 34.517 11.389 37.268 13.1863C37.8157 13.5415 39.7932 15.4018 42.2537 17.871C45.9095 21.5355 46.3277 22.0098 46.3277 22.428C46.3277 23.422 45.5157 24.5245 44.6145 24.752C44.2767 24.843 44.3415 24.934 45.8727 26.4933C46.7652 27.3963 47.5947 28.371 47.7225 28.672C48.1512 29.7028 47.9587 30.7038 47.1747 31.5245C46.774 31.9445 46.7197 32.0898 46.7092 32.928C46.7005 33.6665 46.6182 33.9763 46.326 34.3963C46.0952 34.7379 45.7861 35.0196 45.4245 35.2177C45.0629 35.4159 44.6592 35.5248 44.247 35.5355C43.6817 35.5355 43.5732 35.5898 43.2897 36.0185C42.651 37.0038 40.992 37.3485 39.9175 36.7115L39.3802 36.393L38.997 36.7675C38.15 37.5795 36.7815 37.688 35.7437 37.023C34.9055 36.4945 34.286 35.756 34.286 35.2905C34.286 34.881 34.8792 34.2055 35.2432 34.2055C35.5897 34.2055 36.0552 34.4785 36.5837 34.972C37.1122 35.4725 37.569 35.4725 37.6407 34.9633C37.6775 34.6903 37.24 34.1705 35.4707 32.3925C33.6105 30.5148 33.2552 30.086 33.2552 29.722C33.2511 29.5188 33.2886 29.3169 33.3655 29.1288C33.5667 28.8278 34.132 28.6178 34.4767 28.7088C34.6587 28.7543 36.1987 30.177 37.8857 31.8623C39.5815 33.558 41.0672 34.9423 41.2037 34.9423C41.5782 34.9423 41.8232 34.5678 41.65 34.2493C41.5677 34.104 40.1362 32.6358 38.4772 30.9768C35.8802 28.3885 35.4602 27.9055 35.4602 27.5223C35.4521 27.3159 35.4898 27.1103 35.5705 26.9203C35.7262 26.6928 36.2722 26.4198 36.582 26.4198C36.7185 26.4198 38.4317 28.014 40.3917 29.9653C43.9827 33.5388 44.247 33.7383 44.6215 33.1468C44.758 32.928 44.2662 32.3715 41.2212 29.3178C38.0765 26.1643 37.6582 25.69 37.6582 25.2805C37.6582 24.9988 37.786 24.7065 37.9872 24.5245C38.6522 23.8963 38.8535 24.024 42.0892 27.2405C45.1517 30.2943 45.4247 30.4938 45.7992 29.911C45.9357 29.6923 45.3162 29.0185 41.5152 25.207C37.3765 21.0508 37.0772 20.713 37.0772 20.23C37.0772 19.5003 37.4972 19.1538 38.3075 19.2098C38.4527 19.2185 39.3277 19.957 40.2307 20.8408C41.1425 21.7245 42.126 22.554 42.4182 22.6818C42.9922 22.918 43.6572 22.9548 43.9407 22.7728C44.2137 22.5995 36.6485 15.1533 35.665 14.6335C34.8217 14.1784 33.8942 13.9006 32.9396 13.8174C31.985 13.7341 31.0234 13.8471 30.1141 14.1494C29.2047 14.4517 28.3669 14.9369 27.6521 15.5751C26.9373 16.2133 26.3607 16.9911 25.9577 17.8605C25.4835 18.872 25.4205 19.173 25.3557 20.4768C25.3015 21.707 25.347 22.0903 25.6112 22.8743C26.0855 24.269 26.495 24.843 28.6195 27.013C30.9172 29.365 31.3547 29.9023 31.9375 31.1605C33.579 34.6605 32.886 38.7083 30.1787 41.405C28.119 43.4735 25.312 44.4413 22.5312 44.0598Z" fill="black"/>
</svg>
