<svg width="16" height="16" viewBox="0 0 16 16" fill="none" xmlns="http://www.w3.org/2000/svg">
<path d="M4.4323 3.47875L6.6386 0.612739C6.79619 0.401905 6.98346 0.247206 7.20041 0.148642C7.41737 0.050077 7.64377 0.000531245 7.87964 4.16119e-06C8.1155 -0.000522922 8.34217 0.0490229 8.55965 0.148642C8.77713 0.24826 8.96414 0.402959 9.12068 0.612739L11.327 3.47875L14.6758 4.60539C15.0173 4.71081 15.2865 4.90531 15.4835 5.18888C15.6805 5.47245 15.779 5.78527 15.779 6.12735C15.779 6.28547 15.7559 6.4436 15.7096 6.60172C15.6634 6.75985 15.588 6.91139 15.4835 7.05633L13.3166 10.1398L13.3954 13.3813C13.4085 13.8425 13.2575 14.2313 12.9423 14.5475C12.6271 14.8638 12.2594 15.0219 11.8392 15.0219C11.8129 15.0219 11.6684 15.0021 11.4058 14.9626L7.87964 13.9743L4.3535 14.9626C4.28784 14.9889 4.21561 15.0055 4.13681 15.0124C4.05802 15.0192 3.98579 15.0224 3.92012 15.0219C3.49988 15.0219 3.13216 14.8638 2.81698 14.5475C2.50179 14.2313 2.35076 13.8425 2.3639 13.3813L2.44269 10.12L0.295495 7.05633C0.190433 6.91139 0.114789 6.75985 0.0685615 6.60172C0.0223344 6.4436 -0.000516455 6.28547 8.85355e-06 6.12735C8.85355e-06 5.79792 0.0953523 5.49169 0.286039 5.20864C0.476726 4.9256 0.742533 4.72452 1.08346 4.60539L4.4323 3.47875Z" fill="#224D54"/>
</svg>
