<svg width="53" height="50" viewBox="0 0 53 50" fill="none" xmlns="http://www.w3.org/2000/svg">
<path d="M22.7143 50C19.5595 50 16.605 49.4167 13.8507 48.25C11.0964 47.0833 8.6878 45.4792 6.625 43.4375C4.56221 41.3958 2.94277 39.01 1.76667 36.28C0.590575 33.55 0.00168613 30.6233 3.59517e-06 27.5C-0.00167894 24.3767 0.58721 21.45 1.76667 18.72C2.94613 15.99 4.56557 13.6042 6.625 11.5625C8.68443 9.52083 11.093 7.91667 13.8507 6.75C16.6084 5.58333 19.5629 5 22.7143 5C23.5976 5 24.4498 5.0525 25.2709 5.1575C26.092 5.2625 26.9223 5.41833 27.7619 5.625V10.75C26.9206 10.5 26.0903 10.3125 25.2709 10.1875C24.4515 10.0625 23.5993 10 22.7143 10C17.7508 10 13.5655 11.6875 10.1583 15.0625C6.75119 18.4375 5.04762 22.5833 5.04762 27.5C5.04762 32.4167 6.75119 36.5625 10.1583 39.9375C13.5655 43.3125 17.7508 45 22.7143 45C27.6778 45 31.8631 43.3125 35.2702 39.9375C38.6774 36.5625 40.381 32.4167 40.381 27.5C40.381 27.0417 40.3599 26.625 40.3179 26.25C40.2758 25.875 40.2127 25.4583 40.1286 25H45.3024C45.3865 25.4583 45.4286 25.875 45.4286 26.25V27.5C45.4286 30.625 44.8397 33.5525 43.6619 36.2825C42.4841 39.0125 40.8647 41.3975 38.8036 43.4375C36.7425 45.4775 34.3339 47.0817 31.5779 48.25C28.8219 49.4183 25.8674 50.0017 22.7143 50ZM29.781 38L20.1905 28.5V15H25.2381V26.5L33.3143 34.5L29.781 38ZM40.381 20V12.5H32.8095V7.5H40.381V0H45.4286V7.5H53V12.5H45.4286V20H40.381Z" fill="black"/>
</svg>
