<svg width="12" height="10" viewBox="0 0 12 10" fill="none" xmlns="http://www.w3.org/2000/svg">
<path fill-rule="evenodd" clip-rule="evenodd" d="M11.1024 4.67684L10.1916 3.63879L10.3189 2.26289C10.3434 2.01807 10.1769 1.79283 9.9419 1.73897L8.59048 1.43049L7.88539 0.240657C7.75808 0.0301095 7.49857 -0.0580265 7.27333 0.0399024L6.00026 0.593201L4.73208 0.0496953C4.50684 -0.0482336 4.24244 0.0399024 4.12002 0.250449L3.41004 1.43539L2.06352 1.73897C1.82359 1.79283 1.65711 2.01317 1.6816 2.26289L1.8089 3.63389L0.898165 4.67684C0.736582 4.8629 0.736582 5.1371 0.898165 5.32317L1.8089 6.36121L1.6816 7.74201C1.65711 7.98683 1.82359 8.21207 2.05862 8.26593L3.41004 8.5744L4.11513 9.75934C4.24244 9.96989 4.50195 10.058 4.73208 9.9601L6.00026 9.4068L7.26844 9.95031C7.49367 10.0482 7.75808 9.9601 7.88049 9.74955L8.58558 8.55972L9.937 8.25124C10.1769 8.19738 10.3385 7.97214 10.314 7.72732L10.1867 6.35142L11.0975 5.31337C11.2639 5.1371 11.2639 4.8629 11.1024 4.67684Z" fill="white"/>
</svg>
